<?xml version="1.0" standalone="no"?>
<!DOCTYPE svg PUBLIC "-//W3C//DTD SVG 20010904//EN"
 "http://www.w3.org/TR/2001/REC-SVG-20010904/DTD/svg10.dtd">
<svg version="1.0" xmlns="http://www.w3.org/2000/svg"
 width="854.000000pt" height="200.000000pt" viewBox="0 0 854.000000 200.000000"
 preserveAspectRatio="xMidYMid meet">

<g transform="translate(0.000000,200.000000) scale(0.100000,-0.100000)"
fill="#000000" stroke="none">
<path d="M4459 1430 c-19 -10 -41 -26 -48 -34 -12 -14 -9 -18 22 -31 20 -8 38
-24 42 -34 3 -11 6 -80 5 -153 -1 -73 -1 -199 0 -279 l1 -147 -38 -18 c-29
-15 -39 -26 -41 -49 -5 -41 19 -55 93 -55 69 0 121 20 130 51 8 24 7 26 -37
47 -29 15 -33 22 -31 52 8 159 8 204 2 265 -6 56 -4 75 8 94 l16 24 23 -54
c13 -30 23 -70 24 -89 0 -19 7 -66 16 -105 8 -38 16 -83 18 -100 4 -36 31
-117 48 -145 35 -55 108 2 108 83 0 19 6 52 14 73 7 22 17 75 21 119 8 92 38
213 58 233 12 11 16 7 25 -30 6 -24 11 -81 11 -128 1 -47 3 -133 6 -192 l5
-107 -33 -9 c-25 -6 -32 -14 -32 -33 0 -23 4 -24 82 -33 71 -7 86 -6 108 8 15
10 25 24 23 34 -3 14 -15 17 -63 16 -33 0 -53 1 -44 3 13 3 15 21 13 116 0 62
3 165 9 230 8 90 8 129 -2 166 -17 69 -6 119 28 127 58 14 67 44 19 68 -37 19
-94 20 -164 4 l-52 -12 -8 -56 c-4 -30 -8 -66 -10 -80 -1 -14 -7 -38 -14 -55
-7 -16 -15 -88 -19 -160 -4 -71 -12 -139 -18 -150 -6 -11 -14 -28 -17 -37 -15
-49 -50 11 -61 103 -4 30 -11 68 -17 84 -5 17 -11 62 -13 101 -2 39 -13 97
-24 130 -12 32 -21 70 -21 84 0 33 -8 43 -49 63 -44 22 -77 21 -122 -3z m121
-192 c0 -5 -4 -8 -10 -8 -5 0 -10 10 -10 23 0 18 2 19 10 7 5 -8 10 -18 10
-22z m190 -458 c0 -5 -7 -10 -15 -10 -8 0 -15 5 -15 10 0 6 7 10 15 10 8 0 15
-4 15 -10z"/>
<path d="M942 1428 c-8 -8 -47 -11 -120 -9 -60 1 -125 -1 -144 -4 -45 -8 -144
-96 -135 -119 3 -8 2 -18 -3 -21 -13 -8 -13 -67 0 -101 16 -40 58 -87 99 -107
37 -19 133 -46 167 -46 52 -1 103 -16 140 -42 38 -26 42 -33 46 -81 7 -67 -5
-85 -95 -146 -67 -45 -74 -47 -135 -45 -50 1 -71 6 -91 22 -14 12 -41 31 -59
42 -29 19 -32 26 -32 70 0 92 -68 180 -71 92 -7 -212 -2 -258 31 -288 17 -16
24 -16 44 -5 25 13 39 12 138 -11 54 -12 62 -12 149 16 61 20 94 35 97 47 2 9
10 14 17 12 6 -3 26 11 44 31 32 36 39 55 21 55 -5 0 -10 5 -10 10 0 6 6 10
14 10 26 0 36 116 13 155 -60 102 -97 120 -287 144 -104 12 -161 71 -144 147
8 33 15 39 71 62 59 24 64 24 123 11 33 -7 64 -16 68 -19 17 -11 50 -67 61
-102 7 -20 19 -42 28 -49 39 -33 52 66 27 220 -8 52 -44 77 -72 49z"/>
<path d="M1361 1381 c-12 -16 -21 -45 -21 -65 0 -29 5 -38 30 -51 56 -29 113
-18 135 26 22 42 18 64 -16 93 -44 38 -100 36 -128 -3z"/>
<path d="M6087 1186 c-48 -16 -79 -34 -103 -60 -47 -50 -60 -85 -69 -178 -11
-127 31 -225 124 -285 73 -48 133 -66 195 -58 96 14 216 91 216 140 0 48 -63
39 -135 -20 l-51 -41 -68 7 c-51 5 -78 14 -110 35 -47 33 -96 118 -78 136 13
13 262 31 325 22 55 -7 103 9 112 37 7 23 -4 109 -15 109 -4 0 -12 17 -18 39
-13 42 -45 71 -129 114 -64 33 -107 34 -196 3z m201 -101 c56 -25 60 -29 66
-67 4 -23 3 -45 -1 -49 -4 -4 -66 -10 -138 -13 -126 -5 -197 3 -211 25 -10 17
17 68 45 83 14 7 44 24 66 36 49 26 89 23 173 -15z"/>
<path d="M6948 1195 c-26 -7 -70 -26 -99 -41 l-51 -28 -18 22 c-10 12 -20 27
-22 33 -5 15 -187 13 -205 -2 -16 -14 -17 -41 -1 -57 7 -7 38 -12 70 -12 54 0
59 -2 68 -26 12 -30 15 -320 5 -347 -10 -24 -57 -47 -95 -47 -17 0 -39 -9 -52
-22 -20 -20 -20 -22 -3 -35 22 -15 36 -16 88 -4 20 5 39 6 42 2 2 -4 42 -8 89
-9 67 0 86 2 86 13 0 22 16 26 45 13 22 -10 28 -9 36 3 14 22 11 39 -6 33 -9
-4 -15 0 -15 9 0 10 -15 16 -49 21 -27 3 -53 12 -59 19 -5 6 -12 50 -15 96 -6
78 -5 89 20 139 14 29 38 61 52 70 14 9 30 22 34 29 12 19 48 36 82 39 29 2
30 0 31 -35 2 -64 18 -81 74 -81 78 0 99 45 61 134 -33 75 -97 99 -193 71z"/>
<path d="M2095 1184 c-16 -9 -40 -22 -53 -29 -19 -11 -32 -10 -72 3 -40 13
-53 13 -79 2 -40 -16 -40 -43 -1 -66 41 -25 41 -17 40 -338 0 -32 -7 -47 -36
-77 -31 -32 -34 -40 -25 -58 10 -17 21 -21 59 -20 26 0 70 6 97 12 40 10 51
17 53 35 3 16 -3 25 -22 32 -24 9 -26 14 -26 74 0 36 -4 68 -10 71 -13 8 -13
60 1 108 7 28 7 42 -1 52 -16 19 60 95 95 95 14 0 26 -3 27 -7 0 -5 2 -64 3
-133 1 -69 6 -142 10 -162 6 -34 4 -41 -25 -69 -24 -24 -30 -38 -26 -55 6 -22
11 -24 64 -23 31 1 70 4 87 8 40 8 45 39 11 66 -25 20 -26 25 -27 125 0 119
19 206 52 233 55 44 66 19 75 -166 l7 -157 -27 -39 c-36 -52 -31 -71 23 -89
35 -12 51 -12 83 -3 31 10 43 10 54 0 13 -10 17 -10 25 2 18 28 9 65 -22 95
-42 39 -70 100 -59 130 5 12 8 53 6 91 -2 37 1 79 6 92 12 32 -26 145 -55 166
-30 21 -74 18 -133 -9 l-50 -23 -28 23 c-32 28 -60 30 -101 8z"/>
<path d="M2848 1187 c-31 -7 -74 -26 -97 -41 -44 -31 -91 -87 -91 -108 0 -8
-5 -19 -11 -25 -5 -5 -12 -55 -14 -110 -5 -100 -5 -101 28 -149 17 -27 48 -58
67 -71 19 -12 47 -31 62 -43 68 -53 213 -63 280 -19 21 13 38 29 38 35 0 6 11
17 25 24 33 17 67 73 59 94 -3 9 -1 22 5 30 6 7 8 15 5 19 -3 3 0 15 6 27 15
27 5 62 -11 40 -9 -12 -9 -10 -3 5 19 51 16 92 -11 146 -31 61 -52 81 -77 75
-13 -3 -18 2 -18 18 0 49 -131 78 -242 53z m199 -120 c29 -15 34 -25 50 -97
14 -62 22 -80 35 -80 26 0 31 -18 6 -22 -17 -2 -24 -11 -26 -33 -3 -20 -22
-48 -60 -87 -56 -57 -58 -58 -115 -58 -65 0 -96 16 -154 77 -47 49 -53 64 -53
141 0 79 20 119 80 160 32 22 43 23 120 20 53 -3 97 -11 117 -21z"/>
<path d="M3620 1179 c-19 -12 -53 -37 -74 -55 -40 -35 -56 -36 -56 -5 0 40
-32 62 -98 68 -68 6 -92 -4 -92 -42 0 -26 15 -41 52 -50 58 -15 63 -32 63
-205 -1 -172 -6 -190 -55 -190 -38 0 -56 -24 -44 -58 11 -32 36 -40 135 -41
109 -1 136 6 144 37 5 21 1 31 -20 49 -14 13 -32 23 -39 23 -8 0 -19 6 -25 14
-17 20 -21 193 -5 231 13 31 57 85 70 85 5 0 20 11 34 25 34 33 109 44 143 22
36 -23 52 -91 38 -159 -9 -39 -9 -79 -2 -134 5 -43 8 -80 6 -82 -2 -3 -25 -6
-50 -8 -25 -2 -50 -6 -56 -9 -15 -10 -10 -41 9 -57 27 -23 99 -43 114 -31 7 6
40 11 73 12 96 2 104 7 85 55 -6 18 -17 26 -33 26 -12 0 -32 7 -43 14 -20 14
-21 22 -16 133 6 154 6 170 -5 219 -12 52 -46 100 -83 119 -43 22 -128 19
-170 -6z m-142 -303 c-3 -15 -5 -16 -23 -2 -17 13 -18 17 -5 25 18 12 33 -1
28 -23z m372 -21 c0 -8 -4 -15 -10 -15 -5 0 -10 7 -10 15 0 8 5 15 10 15 6 0
10 -7 10 -15z m1 -128 c-8 -8 -11 -7 -11 4 0 20 13 34 18 19 3 -7 -1 -17 -7
-23z"/>
<path d="M5652 1190 c-40 -3 -77 -11 -83 -17 -19 -19 -5 -56 26 -73 42 -23 43
-55 2 -137 -19 -37 -40 -85 -46 -105 -18 -56 -51 -48 -67 17 -4 17 -25 63 -46
103 -43 82 -41 100 12 127 23 12 30 23 30 44 0 35 -13 41 -94 41 -41 0 -69 -5
-85 -16 -16 -12 -37 -15 -73 -12 -45 5 -51 3 -61 -19 -14 -32 2 -43 63 -43 25
0 50 -4 57 -8 35 -22 183 -375 183 -436 0 -44 -35 -121 -63 -141 -21 -15 -42
-11 -31 6 9 15 -45 79 -67 79 -10 0 -19 5 -19 10 0 13 -68 3 -87 -12 -7 -6
-18 -28 -23 -49 -9 -34 -8 -43 14 -76 48 -72 70 -92 119 -105 42 -11 51 -10
80 5 32 17 107 108 107 129 0 5 9 29 21 52 52 101 50 95 29 109 -25 15 -26 27
-2 21 13 -4 25 13 55 78 20 46 46 107 57 137 11 30 24 57 28 60 5 3 12 24 16
45 4 21 13 45 19 52 7 7 18 20 25 29 7 8 26 15 42 15 34 0 73 33 68 57 -4 19
-61 42 -103 41 -16 -1 -63 -4 -103 -8z m-267 -710 c-3 -5 -13 -10 -21 -10 -8
0 -12 5 -9 10 3 6 13 10 21 10 8 0 12 -4 9 -10z"/>
<path d="M7296 1154 c-52 -55 -59 -86 -34 -159 22 -66 57 -94 99 -78 23 9 37
9 57 1 15 -7 50 -12 77 -13 58 -2 127 -34 151 -70 14 -21 14 -29 3 -55 -8 -16
-17 -30 -20 -30 -4 0 -19 -10 -34 -21 -23 -19 -40 -22 -115 -22 -108 0 -132
12 -157 82 -18 52 -53 81 -70 58 -12 -17 -8 -196 5 -229 14 -35 28 -35 63 -2
28 27 28 27 118 17 122 -14 189 1 243 54 71 70 76 153 10 215 -55 53 -73 59
-180 60 -107 2 -140 16 -162 69 -10 24 -9 31 16 59 23 25 34 30 54 25 14 -3
56 -9 93 -14 71 -9 107 -30 107 -61 0 -22 44 -52 64 -44 13 5 16 23 16 83 0
42 -4 82 -9 90 -10 15 -42 19 -238 27 l-113 5 -44 -47z"/>
<path d="M1300 1171 c-52 -4 -100 -9 -106 -13 -15 -10 -23 -43 -15 -57 11 -18
124 -33 156 -21 36 14 88 13 103 -2 8 -8 12 -66 12 -194 0 -215 14 -196 -148
-199 -78 -1 -106 -5 -118 -17 -14 -14 -13 -19 16 -52 38 -43 65 -46 134 -12
35 17 60 22 90 19 26 -3 63 3 100 16 69 24 124 27 132 7 3 -8 29 -22 57 -31
51 -17 52 -17 69 5 28 34 22 46 -34 75 -46 24 -60 27 -113 22 -33 -3 -67 -2
-75 3 -11 7 -16 41 -20 138 -3 78 -10 135 -17 143 -8 10 -9 20 -3 29 14 21 12
92 -3 111 -7 9 -22 21 -34 27 -23 12 -27 13 -183 3z"/>
</g>
</svg>
